{"title":"The.Croods.2013.DVDRiP.X264.AC3 - BiTo","uid":8910416,"size":1377099227,"categoryP":"video","categoryS":"movies","magnet":"?xt=urn:btih:85cb6176ace43e9b458eb31273b579b9e05af8e1&amp;dn=The.Croods.2013.DVDRiP.X264.AC3+-+BiTo&amp;tr=udp%3A%2F%2Ftracker.openbittorrent.com%3A80&amp;tr=udp%3A%2F%2Fopen.demonii.com%3A1337&amp;tr=udp%3A%2F%2Ftracker.coppersurfer.tk%3A6969&amp;tr=udp%3A%2F%2Fexodus.desync.com%3A6969","seeders":1,"leechers":0,"uploader":"xxxlavalxxx","files":-1,"time":1379006655,"description":" &lt;a href=&quot;\nhttp://www.imdb.com/title/tt0481499/&quot; rel=&quot;nofollow&quot; target=&quot;_NEW&quot;&gt;\nhttp://www.imdb.com/title/tt0481499/&lt;/a&gt;\n\n\n\nAfter their cave is destroyed, a caveman family must trek through an unfamiliar fantastical world with the help of an inventive boy. \nThe Croods is a prehistoric comedy adventure that follows the world's first family as they embark on a journey of a lifetime when the cave that has always shielded them from danger is destroyed. Traveling across a spectacular landscape, the Croods discover an incredible new world filled with fantastic creatures -- and their outlook is changed forever. \n\n\nDirectors:\n Kirk De Micco, Chris Sanders \n\nWriters:\n Chris Sanders (screenplay), Kirk De Micco (screenplay) \n\nStars:\n Nicolas Cage, Ryan Reynolds, Emma Stone \n\nGenres:\n  Animation |  Adventure |  Comedy |  Family |  Fantasy \n\nCountry:\n USA \n\nLanguage:\n English \n\n\n\n\nSource: DVD R1\n Sample: Yes\n Codec: X264\n Container: Mkv\n Audio: AC3 @ 6 Ch ENG\n\n Video\n ID                                       : 1\n Format                                   : AVC\n Format/Info                              : Advanced Video Codec\n Format profile                           : &lt;a class=&quot;__cf_email__&quot; href=&quot;/cdn-cgi/l/email-protection&quot; data-cfemail=&quot;4c04252b240c007f627c&quot;&gt;[email&amp;#160;protected]&lt;/a&gt;&lt;script cf-hash='f9e31' type=&quot;text/javascript&quot;&gt;\n/* &lt;![CDATA[ */!function(){try{var t=&quot;currentScript&quot;in document?document.currentScript:function(){for(var t=document.getElementsByTagName(&quot;script&quot;),e=t.length;e--;)if(t[e].getAttribute(&quot;cf-hash&quot;))return t[e]}();if(t&amp;&amp;t.previousSibling){var e,r,n,i,c=t.previousSibling,a=c.getAttribute(&quot;data-cfemail&quot;);if(a){for(e=&quot;&quot;,r=parseInt(a.substr(0,2),16),n=2;a.length-n;n+=2)i=parseInt(a.substr(n,2),16)^r,e+=String.fromCharCode(i);e=document.createTextNode(e),c.parentNode.replaceChild(e,c)}}}catch(u){}}();/* ]]&gt; */&lt;/script&gt;\n Format settings, CABAC                   : Yes\n Format settings, ReFrames                : 4 frames\n Codec ID                                 : V_MPEG4/ISO/AVC\n Duration                                 : 1h 38mn\n Bit rate                                 : 1 400 Kbps\n Width                                    : 720 pixels\n Height                                   : 304 pixels\n Display aspect ratio                     : 2.35:1\n Frame rate mode                          : Constant\n Frame rate                               : 23.976 fps\n Color space                              : YUV\n Chroma subsampling                       : 4:2:0\n Bit depth                                : 8 bits\n Scan type                                : Progressive\n Bits/(Pixel*Frame)                       : 0.267\n Stream size                              : 960 MiB (74%)\n Writing library                          : x264 core 120\n Language                                 : English\n Default                                  : Yes\n Forced                                   : No\n Color primaries                          : BT.601 NTSC\n Transfer characteristics                 : BT.709\n Matrix coefficients                      : BT.601\n\n Audio\n ID                                       : 2\n Format                                   : AC-3\n Format/Info                              : Audio Coding 3\n Mode extension                           : CM (complete main)\n Format settings, Endianness              : Big\n Codec ID                                 : A_AC3\n Duration                                 : 1h 38mn\n Bit rate mode                            : Constant\n Bit rate                                 : 448 Kbps\n Channel(s)                               : 6 channels\n Channel positions                        : Front: L C R, Side: L R, LFE\n Sampling rate                            : 48.0 KHz\n Bit depth                                : 16 bits\n Compression mode                         : Lossy\n Stream size                              : 316 MiB (24%)\n Language                                 : English\n Default                                  : Yes\n Forced                                   : No\n\n &lt;a href=&quot;\nhttp://bayimg.com/japNBAAeh&quot; rel=&quot;nofollow&quot; target=&quot;_NEW&quot;&gt;\nhttp://bayimg.com/japNBAAeh&lt;/a&gt; &lt;a href=&quot;\nhttp://bayimg.com/JaPndaAEh&quot; rel=&quot;nofollow&quot; target=&quot;_NEW&quot;&gt;\nhttp://bayimg.com/JaPndaAEh&lt;/a&gt;","torrent":{"xt":"urn:btih:85cb6176ace43e9b458eb31273b579b9e05af8e1","amp;dn":"The.Croods.2013.DVDRiP.X264.AC3+-+BiTo","amp;tr":["udp%3A%2F%2Ftracker.openbittorrent.com%3A80","udp%3A%2F%2Fopen.demonii.com%3A1337","udp%3A%2F%2Ftracker.coppersurfer.tk%3A6969","udp%3A%2F%2Fexodus.desync.com%3A6969"],"infoHash":"85cb6176ace43e9b458eb31273b579b9e05af8e1","infoHashBuffer":{"type":"Buffer","data":[133,203,97,118,172,228,62,155,69,142,179,18,115,181,121,185,224,90,248,225]},"announce":[],"urlList":[]}}